<mxfile host="app.diagrams.net" modified="2024-01-20T13:41:00.807Z" agent="Mozilla/5.0 (Windows NT 10.0; Win64; x64) AppleWebKit/537.36 (KHTML, like Gecko) Chrome/120.0.0.0 Safari/537.36 Edg/120.0.0.0" etag="0Xm70gMSoMMEGUCNQNqA" version="22.1.18" type="github">
  <diagram name="Page-1" id="0qhiC--BA6CZaKaPy5FC">
    <mxGraphModel dx="1173" dy="631" grid="1" gridSize="10" guides="1" tooltips="1" connect="1" arrows="1" fold="1" page="1" pageScale="1" pageWidth="850" pageHeight="1100" math="0" shadow="0">
      <root>
        <mxCell id="0" />
        <mxCell id="1" parent="0" />
        <mxCell id="zuYK4tktIuey6SP3J8Am-11" value="START" style="ellipse;whiteSpace=wrap;html=1;" vertex="1" parent="1">
          <mxGeometry x="345" y="130" width="80" height="40" as="geometry" />
        </mxCell>
        <mxCell id="zuYK4tktIuey6SP3J8Am-12" value="GATEWAY&lt;br&gt;(Mesh Model Client)" style="text;html=1;strokeColor=none;fillColor=none;align=center;verticalAlign=middle;whiteSpace=wrap;rounded=0;" vertex="1" parent="1">
          <mxGeometry x="326.5" y="80" width="117" height="40" as="geometry" />
        </mxCell>
        <mxCell id="zuYK4tktIuey6SP3J8Am-14" value="" style="endArrow=classic;html=1;rounded=0;exitX=0.5;exitY=1;exitDx=0;exitDy=0;entryX=0.5;entryY=0;entryDx=0;entryDy=0;" edge="1" parent="1" source="zuYK4tktIuey6SP3J8Am-11">
          <mxGeometry width="50" height="50" relative="1" as="geometry">
            <mxPoint x="545" y="360" as="sourcePoint" />
            <mxPoint x="385" y="200" as="targetPoint" />
          </mxGeometry>
        </mxCell>
        <mxCell id="zuYK4tktIuey6SP3J8Am-15" value="Provisioner" style="rounded=0;whiteSpace=wrap;html=1;" vertex="1" parent="1">
          <mxGeometry x="325" y="300" width="120" height="40" as="geometry" />
        </mxCell>
        <mxCell id="zuYK4tktIuey6SP3J8Am-16" value="Provisioning" style="rhombus;whiteSpace=wrap;html=1;" vertex="1" parent="1">
          <mxGeometry x="320" y="200" width="130" height="60" as="geometry" />
        </mxCell>
        <mxCell id="zuYK4tktIuey6SP3J8Am-17" value="" style="endArrow=classic;html=1;rounded=0;exitX=0.5;exitY=1;exitDx=0;exitDy=0;" edge="1" parent="1" source="zuYK4tktIuey6SP3J8Am-16" target="zuYK4tktIuey6SP3J8Am-15">
          <mxGeometry width="50" height="50" relative="1" as="geometry">
            <mxPoint x="545" y="360" as="sourcePoint" />
            <mxPoint x="595" y="310" as="targetPoint" />
          </mxGeometry>
        </mxCell>
        <mxCell id="zuYK4tktIuey6SP3J8Am-18" value="Đ" style="text;html=1;strokeColor=none;fillColor=none;align=center;verticalAlign=middle;whiteSpace=wrap;rounded=0;" vertex="1" parent="1">
          <mxGeometry x="362" y="260" width="60" height="30" as="geometry" />
        </mxCell>
        <mxCell id="zuYK4tktIuey6SP3J8Am-19" value="" style="endArrow=classic;html=1;rounded=0;exitX=0;exitY=0.5;exitDx=0;exitDy=0;entryX=0;entryY=0.5;entryDx=0;entryDy=0;" edge="1" parent="1" source="zuYK4tktIuey6SP3J8Am-16" target="zuYK4tktIuey6SP3J8Am-11">
          <mxGeometry width="50" height="50" relative="1" as="geometry">
            <mxPoint x="545" y="360" as="sourcePoint" />
            <mxPoint x="595" y="310" as="targetPoint" />
            <Array as="points">
              <mxPoint x="320" y="150" />
            </Array>
          </mxGeometry>
        </mxCell>
        <mxCell id="zuYK4tktIuey6SP3J8Am-20" value="S" style="text;html=1;strokeColor=none;fillColor=none;align=center;verticalAlign=middle;whiteSpace=wrap;rounded=0;" vertex="1" parent="1">
          <mxGeometry x="285" y="170" width="60" height="30" as="geometry" />
        </mxCell>
        <mxCell id="zuYK4tktIuey6SP3J8Am-21" value="Provisioning Node n" style="rounded=0;whiteSpace=wrap;html=1;" vertex="1" parent="1">
          <mxGeometry x="547" y="130" width="110" height="40" as="geometry" />
        </mxCell>
        <mxCell id="zuYK4tktIuey6SP3J8Am-24" value="Provisioned" style="rhombus;whiteSpace=wrap;html=1;" vertex="1" parent="1">
          <mxGeometry x="542" y="205" width="120" height="50" as="geometry" />
        </mxCell>
        <mxCell id="zuYK4tktIuey6SP3J8Am-25" value="" style="endArrow=classic;html=1;rounded=0;exitX=0.5;exitY=1;exitDx=0;exitDy=0;" edge="1" parent="1" source="zuYK4tktIuey6SP3J8Am-21" target="zuYK4tktIuey6SP3J8Am-24">
          <mxGeometry width="50" height="50" relative="1" as="geometry">
            <mxPoint x="682" y="360" as="sourcePoint" />
            <mxPoint x="732" y="310" as="targetPoint" />
          </mxGeometry>
        </mxCell>
        <mxCell id="zuYK4tktIuey6SP3J8Am-26" value="Node n&lt;br&gt;(Mesh Model Sever)" style="text;html=1;strokeColor=none;fillColor=none;align=center;verticalAlign=middle;whiteSpace=wrap;rounded=0;" vertex="1" parent="1">
          <mxGeometry x="522" y="80" width="160" height="40" as="geometry" />
        </mxCell>
        <mxCell id="zuYK4tktIuey6SP3J8Am-27" value="App Bind Key" style="rounded=0;whiteSpace=wrap;html=1;" vertex="1" parent="1">
          <mxGeometry x="544.5" y="290" width="115" height="40" as="geometry" />
        </mxCell>
        <mxCell id="zuYK4tktIuey6SP3J8Am-28" value="" style="endArrow=classic;html=1;rounded=0;exitX=0.5;exitY=1;exitDx=0;exitDy=0;entryX=0.5;entryY=0;entryDx=0;entryDy=0;" edge="1" parent="1" source="zuYK4tktIuey6SP3J8Am-24" target="zuYK4tktIuey6SP3J8Am-27">
          <mxGeometry width="50" height="50" relative="1" as="geometry">
            <mxPoint x="682" y="360" as="sourcePoint" />
            <mxPoint x="732" y="310" as="targetPoint" />
          </mxGeometry>
        </mxCell>
        <mxCell id="zuYK4tktIuey6SP3J8Am-31" value="Mesh Model Client" style="rounded=0;whiteSpace=wrap;html=1;" vertex="1" parent="1">
          <mxGeometry x="332.25" y="470" width="95.5" height="30" as="geometry" />
        </mxCell>
        <mxCell id="zuYK4tktIuey6SP3J8Am-32" value="" style="endArrow=classic;html=1;rounded=0;entryX=0.5;entryY=0;entryDx=0;entryDy=0;exitX=0.5;exitY=1;exitDx=0;exitDy=0;" edge="1" parent="1" source="zuYK4tktIuey6SP3J8Am-27" target="zuYK4tktIuey6SP3J8Am-33">
          <mxGeometry width="50" height="50" relative="1" as="geometry">
            <mxPoint x="682" y="360" as="sourcePoint" />
            <mxPoint x="732" y="310" as="targetPoint" />
          </mxGeometry>
        </mxCell>
        <mxCell id="zuYK4tktIuey6SP3J8Am-33" value="Publish(ms)&lt;br&gt;Group Address" style="rounded=0;whiteSpace=wrap;html=1;" vertex="1" parent="1">
          <mxGeometry x="542" y="375" width="120" height="60" as="geometry" />
        </mxCell>
        <mxCell id="zuYK4tktIuey6SP3J8Am-34" value="Đ" style="text;html=1;strokeColor=none;fillColor=none;align=center;verticalAlign=middle;whiteSpace=wrap;rounded=0;" vertex="1" parent="1">
          <mxGeometry x="582" y="255" width="60" height="30" as="geometry" />
        </mxCell>
        <mxCell id="zuYK4tktIuey6SP3J8Am-35" value="" style="endArrow=classic;html=1;rounded=0;exitX=0;exitY=0.5;exitDx=0;exitDy=0;entryX=0;entryY=0.5;entryDx=0;entryDy=0;" edge="1" parent="1" source="zuYK4tktIuey6SP3J8Am-24" target="zuYK4tktIuey6SP3J8Am-21">
          <mxGeometry width="50" height="50" relative="1" as="geometry">
            <mxPoint x="682" y="360" as="sourcePoint" />
            <mxPoint x="512" y="180" as="targetPoint" />
            <Array as="points">
              <mxPoint x="502" y="230" />
              <mxPoint x="502" y="150" />
            </Array>
          </mxGeometry>
        </mxCell>
        <mxCell id="zuYK4tktIuey6SP3J8Am-36" value="S" style="text;html=1;strokeColor=none;fillColor=none;align=center;verticalAlign=middle;whiteSpace=wrap;rounded=0;" vertex="1" parent="1">
          <mxGeometry x="482" y="170" width="60" height="30" as="geometry" />
        </mxCell>
        <mxCell id="zuYK4tktIuey6SP3J8Am-37" value="Subcribe&lt;br&gt;(Group Address)" style="rounded=0;whiteSpace=wrap;html=1;" vertex="1" parent="1">
          <mxGeometry x="325" y="530" width="112" height="40" as="geometry" />
        </mxCell>
        <mxCell id="zuYK4tktIuey6SP3J8Am-38" value="" style="endArrow=classic;html=1;rounded=0;exitX=0.5;exitY=1;exitDx=0;exitDy=0;entryX=0.5;entryY=0;entryDx=0;entryDy=0;" edge="1" parent="1" source="zuYK4tktIuey6SP3J8Am-31" target="zuYK4tktIuey6SP3J8Am-37">
          <mxGeometry width="50" height="50" relative="1" as="geometry">
            <mxPoint x="677" y="440" as="sourcePoint" />
            <mxPoint x="727" y="390" as="targetPoint" />
          </mxGeometry>
        </mxCell>
        <mxCell id="zuYK4tktIuey6SP3J8Am-39" value="END" style="ellipse;whiteSpace=wrap;html=1;" vertex="1" parent="1">
          <mxGeometry x="567" y="470" width="70" height="40" as="geometry" />
        </mxCell>
        <mxCell id="zuYK4tktIuey6SP3J8Am-40" value="" style="endArrow=classic;html=1;rounded=0;exitX=0.5;exitY=1;exitDx=0;exitDy=0;entryX=0.5;entryY=0;entryDx=0;entryDy=0;" edge="1" parent="1" source="zuYK4tktIuey6SP3J8Am-33" target="zuYK4tktIuey6SP3J8Am-39">
          <mxGeometry width="50" height="50" relative="1" as="geometry">
            <mxPoint x="682" y="360" as="sourcePoint" />
            <mxPoint x="732" y="310" as="targetPoint" />
          </mxGeometry>
        </mxCell>
        <mxCell id="zuYK4tktIuey6SP3J8Am-41" value="Connecting Wifi" style="rhombus;whiteSpace=wrap;html=1;" vertex="1" parent="1">
          <mxGeometry x="325" y="365" width="120" height="45" as="geometry" />
        </mxCell>
        <mxCell id="zuYK4tktIuey6SP3J8Am-42" value="" style="endArrow=classic;html=1;rounded=0;exitX=0.5;exitY=1;exitDx=0;exitDy=0;entryX=0.5;entryY=0;entryDx=0;entryDy=0;" edge="1" parent="1" source="zuYK4tktIuey6SP3J8Am-15" target="zuYK4tktIuey6SP3J8Am-41">
          <mxGeometry width="50" height="50" relative="1" as="geometry">
            <mxPoint x="400" y="350" as="sourcePoint" />
            <mxPoint x="450" y="300" as="targetPoint" />
          </mxGeometry>
        </mxCell>
        <mxCell id="zuYK4tktIuey6SP3J8Am-43" value="" style="endArrow=classic;html=1;rounded=0;exitX=0.5;exitY=1;exitDx=0;exitDy=0;entryX=0.5;entryY=0;entryDx=0;entryDy=0;" edge="1" parent="1" target="zuYK4tktIuey6SP3J8Am-31">
          <mxGeometry width="50" height="50" relative="1" as="geometry">
            <mxPoint x="381" y="410" as="sourcePoint" />
            <mxPoint x="446" y="300" as="targetPoint" />
          </mxGeometry>
        </mxCell>
        <mxCell id="zuYK4tktIuey6SP3J8Am-44" value="Đ" style="text;html=1;strokeColor=none;fillColor=none;align=center;verticalAlign=middle;whiteSpace=wrap;rounded=0;" vertex="1" parent="1">
          <mxGeometry x="361" y="420" width="60" height="30" as="geometry" />
        </mxCell>
        <mxCell id="zuYK4tktIuey6SP3J8Am-45" value="" style="endArrow=classic;html=1;rounded=0;exitX=0;exitY=1;exitDx=0;exitDy=0;entryX=0;entryY=0;entryDx=0;entryDy=0;" edge="1" parent="1" source="zuYK4tktIuey6SP3J8Am-41" target="zuYK4tktIuey6SP3J8Am-41">
          <mxGeometry width="50" height="50" relative="1" as="geometry">
            <mxPoint x="400" y="350" as="sourcePoint" />
            <mxPoint x="330" y="360" as="targetPoint" />
            <Array as="points">
              <mxPoint x="290" y="400" />
              <mxPoint x="290" y="376" />
            </Array>
          </mxGeometry>
        </mxCell>
        <mxCell id="zuYK4tktIuey6SP3J8Am-46" value="S" style="text;html=1;strokeColor=none;fillColor=none;align=center;verticalAlign=middle;whiteSpace=wrap;rounded=0;" vertex="1" parent="1">
          <mxGeometry x="250" y="375" width="60" height="30" as="geometry" />
        </mxCell>
      </root>
    </mxGraphModel>
  </diagram>
</mxfile>
